<?xml version="1.0" encoding="UTF-8" standalone="no"?>
<svg
   xmlns:dc="http://purl.org/dc/elements/1.1/"
   xmlns:cc="http://creativecommons.org/ns#"
   xmlns:rdf="http://www.w3.org/1999/02/22-rdf-syntax-ns#"
   xmlns:svg="http://www.w3.org/2000/svg"
   xmlns="http://www.w3.org/2000/svg"
   xmlns:xlink="http://www.w3.org/1999/xlink"
   xmlns:sodipodi="http://sodipodi.sourceforge.net/DTD/sodipodi-0.dtd"
   xmlns:inkscape="http://www.inkscape.org/namespaces/inkscape"
   version="1.1"
   preserveAspectRatio="none"
   x="0px"
   y="0px"
   viewBox="0 0 64 63.999999"
   id="svg147"
   sodipodi:docname="favicon.svg"
   inkscape:version="0.92.3 (2405546, 2018-03-11)"
   width="64"
   height="64">
  <metadata
     id="metadata151">
    <rdf:RDF>
      <cc:Work
         rdf:about="">
        <dc:format>image/svg+xml</dc:format>
        <dc:type
           rdf:resource="http://purl.org/dc/dcmitype/StillImage" />
        <dc:title></dc:title>
      </cc:Work>
    </rdf:RDF>
  </metadata>
  <sodipodi:namedview
     pagecolor="#ffffff"
     bordercolor="#666666"
     borderopacity="1"
     objecttolerance="10"
     gridtolerance="10"
     guidetolerance="10"
     inkscape:pageopacity="0"
     inkscape:pageshadow="2"
     inkscape:window-width="1920"
     inkscape:window-height="1020"
     id="namedview149"
     showgrid="false"
     inkscape:zoom="9.3677506"
     inkscape:cx="25.419907"
     inkscape:cy="29.578798"
     inkscape:window-x="0"
     inkscape:window-y="0"
     inkscape:window-maximized="1"
     inkscape:current-layer="svg147" />
  <defs
     id="defs137">
    <g
       id="a">
      <path
         d="m 84.45,29.75 q -0.25,0 -0.5,0.1 L 51.35,48.7 19.1,30.1 q -0.05,-0.05 -0.2,-0.15 -0.1,-0.1 -0.25,-0.1 -0.2,-0.15 -0.5,-0.1 -0.2,0.05 -0.45,0.2 -0.15,0.15 -0.3,0.3 v 0.1 q -0.1,0.15 -0.15,0.3 0,0.05 0,0.15 v 38.8 q 0,0.05 0,0.15 0,0.25 0.15,0.4 0.15,0.25 0.4,0.4 0.25,0.1 0.5,0.1 0.25,0 0.5,-0.1 L 51.45,51.7 83.65,70.3 q 0.1,0.05 0.2,0.15 0.1,0.1 0.25,0.1 0.2,0.15 0.5,0.1 0.2,-0.05 0.45,-0.2 0.15,-0.15 0.3,-0.3 0.025,-0.025 0.05,-0.05 v -0.05 q 0.05,-0.15 0.1,-0.3 0,-0.05 0,-0.15 V 30.8 q 0,-0.05 0,-0.15 0,-0.25 -0.1,-0.4 -0.2,-0.25 -0.45,-0.4 -0.25,-0.1 -0.5,-0.1 m -1,2.8 v 9.9 l -22,12.65 -8.55,-4.95 30.55,-17.6 m 0,12.25 v 23 L 63.5,56.25 83.45,44.8 M 19.3,32.6 39.25,44.15 19.3,55.6 v -23 m 0,35.25 v -9.9 l 22,-12.65 8.55,4.95 z"
         id="path134"
         inkscape:connector-curvature="0"
         style="fill:#000000;stroke:none" />
    </g>
  </defs>
  <g
     transform="matrix(0.82051282,0,0,0.82051282,-10.153846,-9.189743)"
     id="g141">
    <use
       xlink:href="#a"
       id="use139"
       x="0"
       y="0"
       width="100%"
       height="100%" />
  </g>
</svg>
